<svg xmlns="http://www.w3.org/2000/svg" xmlns:xlink="http://www.w3.org/1999/xlink" width="18px" height="12px">
<path d="M12.068,1.247 L16.369,1.247 L16.369,2.327 L12.068,2.327 L12.068,1.247 ZM18.000,7.641 L12.401,7.641 C12.460,8.976 13.121,9.467 14.306,9.467 C15.163,9.467 15.854,9.199 15.989,8.724 L17.696,8.724 C17.097,10.533 15.989,11.054 14.232,11.054 C11.785,11.054 10.269,9.394 10.269,7.021 C10.269,4.722 11.876,2.973 14.232,2.973 C16.873,2.973 18.150,5.284 18.000,7.641 ZM12.401,6.074 L15.869,6.074 C15.673,5.006 15.207,4.560 14.171,4.560 C12.821,4.560 12.430,5.481 12.401,6.074 ZM9.709,7.776 C9.709,9.927 7.862,10.847 5.925,10.847 L0.731,10.847 L0.731,0.192 L5.777,0.192 C7.818,0.192 9.199,0.911 9.199,2.883 C9.199,3.923 8.673,4.648 7.742,5.093 C9.049,5.464 9.709,6.457 9.709,7.776 ZM5.093,1.984 L2.887,1.984 L2.887,4.460 L5.273,4.460 C6.098,4.460 6.714,4.090 6.714,3.201 C6.714,2.193 5.933,1.984 5.093,1.984 ZM5.453,6.047 L2.887,6.047 L2.887,8.954 L5.408,8.954 C6.339,8.954 7.149,8.658 7.149,7.560 C7.149,6.477 6.459,6.047 5.453,6.047 Z"/>
</svg>
