<svg xmlns="http://www.w3.org/2000/svg" width="41" height="40"><path d="M38.268 40H2.63a1.847 1.847 0 0 1-1.844-1.848V2.437C.786 1.418 1.612.59 2.63.59h35.638c1.018 0 1.843.828 1.843 1.847v35.715c0 1.02-.825 1.848-1.843 1.848zM36.425 4.285H4.473v32.02h31.952V4.285zM7.196 20.589l-.001-.001 4.915-3.079.001.001a1.833 1.833 0 0 1 1.997.045l.007-.011 8.149 5.443 9.386-6.64a1.838 1.838 0 0 1 1.088-.356c1.018 0 1.843.828 1.843 1.848 0 .616-.301 1.161-.763 1.496v.001l-10.446 7.389v-.001a1.828 1.828 0 0 1-1.08.351c-.394 0-.759-.124-1.058-.335l-8.18-5.465L9.2 23.688a1.845 1.845 0 0 1-2.884-1.525c0-.666.352-1.249.88-1.574z"/></svg>