<svg xmlns="http://www.w3.org/2000/svg" width="44" height="40"><path d="M43.427 16.306c0 3.003-2.421 5.436-5.407 5.436-2.987 0-5.407-2.433-5.407-5.436 0 3.003-2.421 5.436-5.408 5.436-2.986 0-5.407-2.433-5.407-5.436 0 3.003-2.421 5.436-5.407 5.436s-5.407-2.433-5.407-5.436c0 3.003-2.421 5.436-5.407 5.436-2.987 0-5.408-2.433-5.408-5.436L3.971 6.114h35.654l3.802 10.192zm-6.759-12.23H6.928a2.033 2.033 0 0 1-2.027-2.039c0-1.125.908-2.038 2.027-2.038h29.74c1.12 0 2.028.913 2.028 2.038a2.034 2.034 0 0 1-2.028 2.039zM6.252 23.747v-.001a7.72 7.72 0 0 0 .575-.079c.041-.008.083-.011.123-.019.088-.016.172-.041.259-.06a7.447 7.447 0 0 0 1.071-.325v10.03h27.036v-10.03a7.47 7.47 0 0 0 1.07.324c.087.02.172.045.26.061.041.008.082.011.123.019.19.032.381.061.575.079v.001c.222.021.448.034.676.034a7.42 7.42 0 0 0 1.351-.13V37.37a2.033 2.033 0 0 1-2.027 2.038H6.252a2.033 2.033 0 0 1-2.027-2.038V23.651c.439.081.889.13 1.352.13.228 0 .453-.013.675-.034z"/></svg>