<svg xmlns="http://www.w3.org/2000/svg" xmlns:xlink="http://www.w3.org/1999/xlink" width="19px" height="17px">
<path d="M17.928,6.783 C17.815,6.238 17.645,5.701 17.425,5.188 C17.209,4.685 16.941,4.200 16.629,3.747 C16.320,3.298 15.966,2.876 15.576,2.492 C15.185,2.108 14.756,1.760 14.299,1.457 C13.838,1.150 13.344,0.887 12.832,0.674 C12.311,0.458 11.765,0.291 11.210,0.180 C10.642,0.065 10.057,0.007 9.472,0.007 C8.887,0.007 8.302,0.065 7.733,0.180 C7.179,0.291 6.633,0.458 6.111,0.674 C5.600,0.887 5.106,1.150 4.645,1.457 C4.188,1.760 3.758,2.108 3.368,2.492 C2.977,2.876 2.623,3.298 2.314,3.747 C2.003,4.200 1.735,4.685 1.518,5.188 C1.298,5.701 1.128,6.238 1.015,6.783 C0.899,7.341 0.840,7.916 0.840,8.490 C0.840,9.066 0.899,9.641 1.015,10.199 C1.128,10.744 1.298,11.281 1.518,11.793 C1.735,12.296 2.003,12.782 2.314,13.235 C2.623,13.684 2.977,14.106 3.368,14.489 C3.758,14.873 4.188,15.221 4.645,15.525 C5.106,15.831 5.600,16.094 6.111,16.307 C6.633,16.524 7.179,16.689 7.733,16.801 C8.302,16.917 8.887,16.974 9.472,16.974 C10.057,16.974 10.642,16.917 11.210,16.801 C11.765,16.689 12.311,16.524 12.832,16.307 C13.344,16.094 13.838,15.831 14.299,15.525 C14.756,15.221 15.185,14.873 15.576,14.489 C15.966,14.106 16.320,13.684 16.629,13.235 C16.941,12.782 17.209,12.296 17.425,11.793 C17.645,11.281 17.815,10.744 17.928,10.199 C18.045,9.641 18.104,9.066 18.104,8.490 C18.104,7.916 18.045,7.341 17.928,6.783 ZM16.842,8.419 C16.735,8.395 14.240,7.868 11.707,8.181 C11.655,8.056 11.602,7.932 11.548,7.807 C11.394,7.452 11.229,7.101 11.058,6.756 C13.969,5.588 15.151,3.908 15.165,3.888 C16.199,5.123 16.825,6.699 16.842,8.419 ZM14.341,3.053 C14.323,3.082 13.273,4.652 10.490,5.676 C9.230,3.402 7.846,1.594 7.735,1.450 C8.292,1.318 8.873,1.246 9.472,1.246 C11.339,1.246 13.042,1.929 14.341,3.053 ZM7.706,1.456 C7.706,1.457 7.705,1.457 7.705,1.457 C7.705,1.457 7.696,1.459 7.683,1.462 C7.690,1.460 7.698,1.458 7.706,1.456 ZM6.327,1.938 C6.424,2.067 7.788,3.884 9.064,6.113 C5.524,7.036 2.452,7.001 2.258,6.998 C2.737,4.753 4.271,2.893 6.327,1.938 ZM2.100,8.490 C2.100,8.413 2.103,8.337 2.106,8.261 C2.236,8.264 5.879,8.345 9.674,7.229 C9.886,7.635 10.088,8.049 10.273,8.460 C10.175,8.487 10.078,8.516 9.982,8.547 C6.004,9.811 3.986,13.329 3.986,13.329 C3.986,13.329 3.988,13.330 3.989,13.332 C2.815,12.049 2.100,10.351 2.100,8.490 ZM9.472,15.735 C7.688,15.735 6.051,15.112 4.776,14.075 C4.873,14.153 4.941,14.202 4.941,14.202 C4.941,14.202 6.354,11.173 10.726,9.676 C10.742,9.670 10.759,9.665 10.775,9.661 C11.813,12.310 12.241,14.528 12.350,15.162 C11.466,15.531 10.493,15.735 9.472,15.735 ZM13.591,14.500 C13.516,14.062 13.123,11.936 12.156,9.325 C14.536,8.951 16.598,9.592 16.751,9.641 C16.423,11.660 15.247,13.401 13.591,14.500 Z"/>
</svg>
