<svg xmlns="http://www.w3.org/2000/svg" xmlns:xlink="http://www.w3.org/1999/xlink" width="9px" height="18px">
<path d="M8.088,1.007 C8.088,1.985 8.088,3.739 8.088,3.739 C8.088,3.739 6.039,3.538 5.526,4.309 C5.246,4.731 5.412,5.966 5.388,6.853 C6.282,6.853 7.211,6.853 8.105,6.853 C7.875,7.889 7.710,8.591 7.542,9.489 C6.768,9.489 5.372,9.489 5.372,9.489 L5.372,17.975 C5.372,17.975 2.812,17.975 1.608,17.975 C1.609,15.359 1.608,12.307 1.608,9.522 C1.024,9.522 0.591,9.522 0.007,9.522 C0.007,8.544 0.007,7.831 0.007,6.853 C0.574,6.853 1.023,6.853 1.591,6.853 C1.672,4.901 1.702,2.966 2.689,1.981 C3.798,0.874 4.856,1.007 8.088,1.007 Z"/>
</svg>
