<svg xmlns="http://www.w3.org/2000/svg" width="64" height="62"><path d="M63.999 58.992l.001.007a3 3 0 0 1-3 3h-1.832a5.942 5.942 0 0 0 .832-3c1.499 0 2.852-.569 3.904-1.478.093.904.097 1.471.097 1.471h-.002zM60 55.999h-3v3a3 3 0 1 1-6 0v-3h-3a3 3 0 1 1 0-6h3v-3a3 3 0 1 1 6 0v3h3a3 3 0 1 1 0 6zm-12-9a6 6 0 1 0 0 12c0 1.099.317 2.114.832 3H3a3 3 0 0 1-3-3l.001-.007h-.002s0-10.932 7.988-14.907c5.054-2.515 3.108-.474 9.314-3.048 6.205-2.569 7.675-3.466 7.675-3.466l.058-5.923s-2.324-1.778-3.046-7.352c-1.455.42-1.935-1.708-2.02-3.062-.078-1.308-.842-5.395.932-5.026-.363-2.73-.623-5.19-.496-6.494.445-4.577 4.853-9.358 11.643-9.707 7.987.348 11.151 5.127 11.595 9.703.129 1.304-.156 3.767-.519 6.491 1.775-.364 1.003 3.716.917 5.026-.079 1.354-.57 3.475-2.02 3.055-.725 5.573-3.049 7.337-3.049 7.337l.054 5.893s1.47.839 7.675 3.41c1.791.742 2.892 1.105 3.689 1.313C48.946 43.33 48 45.047 48 46.999z"/></svg>