<svg xmlns="http://www.w3.org/2000/svg" xmlns:xlink="http://www.w3.org/1999/xlink" width="15px" height="17px">
<path d="M6.314,11.044 C6.173,11.597 6.031,12.176 5.884,12.741 C5.739,13.299 5.612,13.866 5.400,14.378 C5.050,15.228 4.606,16.048 4.022,16.712 C3.635,17.154 3.717,16.977 3.600,16.954 C3.511,16.936 3.504,16.850 3.486,16.726 C3.391,16.050 3.456,15.271 3.491,14.512 C3.531,13.648 3.716,12.930 3.888,12.212 C4.215,10.844 4.526,9.503 4.856,8.127 C4.878,8.036 4.937,7.884 4.916,7.832 C4.767,7.450 4.670,7.107 4.627,6.705 C4.578,6.244 4.616,5.814 4.721,5.417 C4.908,4.716 5.337,4.094 5.999,3.868 C6.419,3.724 6.885,3.789 7.168,3.955 C7.460,4.126 7.660,4.397 7.753,4.780 C7.853,5.189 7.779,5.676 7.699,6.034 C7.519,6.842 7.282,7.448 7.067,8.228 C6.961,8.614 6.840,9.011 6.940,9.428 C7.031,9.812 7.234,10.076 7.511,10.273 C7.798,10.479 8.138,10.591 8.607,10.575 C9.435,10.547 10.010,10.027 10.395,9.536 C11.010,8.751 11.383,7.691 11.524,6.430 C11.570,6.024 11.603,5.556 11.571,5.096 C11.512,4.244 11.241,3.560 10.811,3.030 C10.403,2.525 9.823,2.123 9.118,1.896 C8.418,1.672 7.450,1.598 6.590,1.742 C5.028,2.005 3.925,2.878 3.276,4.083 C2.936,4.714 2.711,5.440 2.711,6.343 C2.711,7.039 2.886,7.580 3.169,7.999 C3.258,8.133 3.390,8.243 3.478,8.395 C3.602,8.611 3.459,8.933 3.397,9.167 C3.323,9.449 3.315,9.838 2.980,9.844 C2.842,9.847 2.668,9.747 2.550,9.683 C1.670,9.205 1.136,8.336 0.917,7.208 C0.784,6.524 0.784,5.725 0.917,5.063 C1.045,4.422 1.284,3.831 1.549,3.352 C2.098,2.356 2.902,1.559 3.881,0.991 C4.634,0.554 5.483,0.247 6.516,0.099 C6.859,0.050 7.214,0.030 7.598,0.012 C8.723,-0.041 9.746,0.210 10.516,0.548 C11.329,0.905 11.977,1.381 12.526,1.970 C13.090,2.576 13.502,3.282 13.763,4.163 C13.898,4.622 14.031,5.113 14.031,5.679 C14.031,6.247 13.908,6.748 13.823,7.248 C13.503,9.123 12.596,10.656 11.235,11.527 C10.905,11.739 10.506,11.934 10.052,12.064 C9.602,12.193 9.089,12.290 8.539,12.252 C8.006,12.216 7.569,12.073 7.202,11.870 C6.838,11.668 6.531,11.420 6.314,11.044 Z"/>
</svg>
