<svg xmlns="http://www.w3.org/2000/svg" xmlns:xlink="http://www.w3.org/1999/xlink" width="50px" height="44px">
<path d="M14.005,23.998 C12.900,23.998 11.958,23.607 11.177,22.826 C10.395,22.044 10.005,21.102 10.005,19.997 L10.005,11.997 L18.005,11.997 L18.005,23.998 L14.005,23.998 ZM46.006,31.998 L46.006,6.996 L48.006,5.996 L47.006,-0.005 L17.005,-0.005 L16.005,3.996 L1.004,3.996 L0.004,7.996 L2.004,9.997 L2.004,19.997 C2.004,23.310 3.176,26.138 5.520,28.482 C7.864,30.826 10.692,31.998 14.005,31.998 L18.005,31.998 L14.005,37.999 L14.005,44.000 L50.006,44.000 L50.006,37.999 L46.006,31.998 Z"/>
</svg>
