<svg xmlns="http://www.w3.org/2000/svg" width="47" height="40"><path d="M37.574 25.403c-5.205 0-9.425-4.248-9.425-9.487s4.22-9.487 9.425-9.487c5.206 0 9.426 4.248 9.426 9.487s-4.22 9.487-9.426 9.487zm4.351-11.676h-2.176v-2.19a2.182 2.182 0 0 0-2.175-2.189c-1.201 0-2.175.98-2.175 2.189v2.19h-2.175a2.182 2.182 0 0 0-2.175 2.189c0 1.209.974 2.189 2.175 2.189h2.175v2.19c0 1.209.974 2.19 2.175 2.19a2.182 2.182 0 0 0 2.175-2.19v-2.19h2.176c1.201 0 2.175-.98 2.175-2.189 0-1.21-.974-2.189-2.175-2.189zm-13.26-5.286l-2.414-4.589.009-.005a2.182 2.182 0 0 1-.287-1.068c0-1.209.974-2.189 2.176-2.189.852 0 1.582.499 1.939 1.217l.008-.004 2.007 3.817a11.676 11.676 0 0 0-3.438 2.821zM21.35 3.852l-4.81 9.145h-4.923l5.888-11.194.005.003A2.165 2.165 0 0 1 19.448.59a2.177 2.177 0 0 1 1.889 3.255l.013.007zm-2.99 11.334h7.65c-.015.243-.037.483-.037.73 0 3.686 1.701 6.967 4.351 9.107v8.408c0 1.209.974 2.19 2.175 2.19a2.183 2.183 0 0 0 2.175-2.19V27.21c.929.241 1.897.383 2.9.383 1.206 0 2.368-.186 3.461-.529l-2.801 11.277-.006-.002A2.176 2.176 0 0 1 36.124 40h-24.64v-.002l-.012.002a2.177 2.177 0 0 1-2.104-1.661l-.006.002-4.663-18.776H2.772a2.182 2.182 0 0 1-2.176-2.189c0-1.209.974-2.19 2.176-2.19H18.36zm3.263 18.245c0 1.209.974 2.19 2.175 2.19a2.182 2.182 0 0 0 2.175-2.19V21.754a2.182 2.182 0 0 0-2.175-2.189c-1.201 0-2.175.98-2.175 2.189v11.677zm-4.35-11.677a2.182 2.182 0 0 0-2.175-2.189c-1.202 0-2.176.98-2.176 2.189v11.677c0 1.209.974 2.19 2.176 2.19a2.183 2.183 0 0 0 2.175-2.19V21.754z"/></svg>