<svg xmlns="http://www.w3.org/2000/svg" xmlns:xlink="http://www.w3.org/1999/xlink" width="18px" height="15px">
<path d="M11.954,0.472 C13.326,0.449 14.056,0.939 14.753,1.565 C15.345,1.514 16.115,1.189 16.568,0.963 C16.715,0.884 16.862,0.805 17.009,0.726 C16.750,1.413 16.399,1.951 15.859,2.360 C15.740,2.450 15.621,2.573 15.471,2.631 C15.471,2.634 15.471,2.636 15.471,2.639 C16.239,2.632 16.873,2.291 17.475,2.106 C17.475,2.109 17.475,2.111 17.475,2.115 C17.159,2.608 16.731,3.110 16.274,3.469 C16.090,3.613 15.905,3.757 15.721,3.901 C15.731,4.701 15.709,5.464 15.557,6.136 C14.672,10.042 12.329,12.695 8.619,13.832 C7.286,14.239 5.133,14.407 3.607,14.034 C2.850,13.850 2.166,13.642 1.525,13.366 C1.168,13.213 0.838,13.047 0.522,12.858 C0.419,12.796 0.315,12.733 0.211,12.671 C0.556,12.681 0.958,12.775 1.343,12.714 C1.692,12.658 2.033,12.673 2.354,12.604 C3.155,12.431 3.867,12.202 4.480,11.850 C4.777,11.679 5.228,11.479 5.439,11.232 C5.041,11.239 4.680,11.148 4.385,11.046 C3.239,10.648 2.572,9.918 2.138,8.820 C2.485,8.856 3.485,8.946 3.719,8.751 C3.282,8.728 2.862,8.479 2.562,8.294 C1.640,7.728 0.888,6.777 0.894,5.315 C1.015,5.371 1.136,5.427 1.257,5.484 C1.488,5.579 1.724,5.631 2.000,5.687 C2.117,5.711 2.350,5.778 2.484,5.729 C2.478,5.729 2.472,5.729 2.466,5.729 C2.288,5.525 1.998,5.390 1.818,5.171 C1.227,4.448 0.673,3.336 1.024,2.013 C1.112,1.677 1.253,1.381 1.404,1.107 C1.409,1.110 1.415,1.112 1.421,1.115 C1.490,1.257 1.643,1.361 1.741,1.479 C2.043,1.847 2.415,2.178 2.795,2.470 C4.088,3.464 5.253,4.075 7.124,4.527 C7.598,4.642 8.147,4.729 8.714,4.730 C8.554,4.275 8.606,3.537 8.731,3.096 C9.046,1.987 9.731,1.188 10.736,0.760 C10.976,0.658 11.242,0.583 11.522,0.523 C11.666,0.506 11.810,0.489 11.954,0.472 Z"/>
</svg>
