<svg xmlns="http://www.w3.org/2000/svg" xmlns:xlink="http://www.w3.org/1999/xlink" width="12px" height="13px">
<path d="M11.617,8.313 L4.434,1.201 C4.434,1.201 5.498,0.664 5.829,0.992 L11.815,6.919 C12.146,7.246 11.617,8.313 11.617,8.313 ZM5.835,6.166 C5.505,6.497 4.969,6.501 4.639,6.174 L1.446,3.013 C1.115,2.686 1.115,2.151 1.444,1.819 C1.774,1.487 2.310,1.483 2.640,1.811 L5.833,4.971 C6.164,5.299 6.164,5.833 5.835,6.166 ZM6.639,12.129 L0.652,6.202 C0.322,5.875 0.850,4.807 0.850,4.807 L8.034,11.920 C8.034,11.920 6.969,12.456 6.639,12.129 ZM6.633,6.956 C6.963,6.624 7.498,6.620 7.829,6.947 L11.021,10.108 C11.352,10.436 11.353,10.970 11.023,11.302 C10.693,11.634 10.157,11.638 9.827,11.310 L6.634,8.149 C6.303,7.822 6.303,7.287 6.633,6.956 Z"/>
</svg>
